<svg viewBox="0 0 512 512" xmlns="http://www.w3.org/2000/svg">
  <circle cx="256" cy="256" r="200" fill="#b8c5d6" opacity="0.9"/>
  <circle cx="200" cy="160" r="35" fill="#8fa3ba"/>
  <circle cx="280" cy="120" r="25" fill="#8fa3ba"/>
  <circle cx="150" cy="220" r="20" fill="#8fa3ba"/>
  <circle cx="320" cy="200" r="40" fill="#8fa3ba"/>
  <circle cx="180" cy="300" r="30" fill="#8fa3ba"/>
  <circle cx="320" cy="300" r="35" fill="#8fa3ba"/>
  <circle cx="250" cy="350" r="25" fill="#8fa3ba"/>
  <circle cx="140" cy="280" r="18" fill="#8fa3ba"/>
  <circle cx="360" cy="260" r="28" fill="#8fa3ba"/>
  <ellipse cx="200" cy="180" rx="25" ry="15" fill="#c5d0dd"/>
  <ellipse cx="300" cy="320" rx="20" ry="12" fill="#c5d0dd"/>
  <ellipse cx="140" cy="160" rx="15" ry="10" fill="#c5d0dd"/>
  <path d="M 256 256 Q 200 220 180 280 Q 160 340 220 360 Q 280 375 300 320 Q 320 260 280 240 Z" fill="#a0afc0" opacity="0.6"/>
  <circle cx="100" cy="140" r="10" fill="#8fa3ba"/>
  <circle cx="380" cy="180" r="12" fill="#8fa3ba"/>
  <circle cx="120" cy="350" r="8" fill="#8fa3ba"/>
  <circle cx="160" cy="100" r="7" fill="#8fa3ba"/>
</svg>